{"accessors" : [{"bufferView" : 0, "byteOffset" : 0, "componentType" : 5123, "count" : 11904, "type" : "SCALAR", "max" : [11903], "min" : [0]}, {"bufferView" : 1, "byteOffset" : 0, "componentType" : 5126, "count" : 11904, "type" : "VEC3", "max" : [10, 10, 10], "min" : [-10, -10, -10], "name" : "POSITION"}, {"bufferView" : 1, "byteOffset" : 12, "componentType" : 5126, "count" : 11904, "type" : "VEC3", "max" : [1.0000044107437134, 1.0000044107437134, 1.0000042915344238], "min" : [-1.0000044107437134, -1.0000044107437134, -1.0000044107437134], "name" : "NORMAL"}, {"bufferView" : 1, "byteOffset" : 24, "componentType" : 5126, "count" : 11904, "type" : "VEC2", "max" : [0.9999994039535522, 1.000000238418579], "min" : [0, 0], "name" : "TEXCOORD_0"}, {"bufferView" : 0, "byteOffset" : 23808, "componentType" : 5123, "count" : 11904, "type" : "SCALAR", "max" : [11903], "min" : [0]}, {"bufferView" : 2, "byteOffset" : 0, "componentType" : 5126, "count" : 11904, "type" : "VEC3", "max" : [10, 10, 10], "min" : [-10, -10, -10], "name" : "POSITION"}, {"bufferView" : 2, "byteOffset" : 12, "componentType" : 5126, "count" : 11904, "type" : "VEC3", "max" : [1.0000044107437134, 1.0000044107437134, 1.0000042915344238], "min" : [-1.0000044107437134, -1.0000044107437134, -1.0000044107437134], "name" : "NORMAL"}, {"bufferView" : 2, "byteOffset" : 24, "componentType" : 5126, "count" : 11904, "type" : "VEC2", "max" : [0.9999994039535522, 1.000000238418579], "min" : [0, 0], "name" : "TEXCOORD_0"}], "asset" : {"generator" : "Aspose.3D 24.6.0", "version" : "2.0"}, "buffers" : [{"uri" : "data:application/octet-stream;base64,", "byteLength" : 809484}], "bufferViews" : [{"buffer" : 0, "byteOffset" : 0, "byteLength" : 47616, "target" : 34963}, {"buffer" : 0, "byteOffset" : 47620, "byteLength" : 380928, "byteStride" : 32, "target" : 34962}, {"buffer" : 0, "byteOffset" : 428552, "byteLength" : 380928, "byteStride" : 32, "target" : 34962}], "materials" : [{"name" : "1", "pbrMetallicRoughness" : {"baseColorFactor" : [0.5529412031173706, 0.48235297203063965, 0, 1], "metallicFactor" : 1, "roughnessFactor" : 1}, "emissiveFactor" : [0, 0, 0], "alphaMode" : "OPAQUE", "doubleSided" : false}, {"name" : "2", "pbrMetallicRoughness" : {"baseColorFactor" : [0.11764706671237946, 0.5215686559677124, 0.37254902720451355, 1], "metallicFactor" : 1, "roughnessFactor" : 1}, "emissiveFactor" : [0, 0, 0], "alphaMode" : "OPAQUE", "doubleSided" : false}], "meshes" : [{"primitives" : [{"attributes" : {"POSITION" : 1, "NORMAL" : 2, "TEXCOORD_0" : 3}, "indices" : 0, "material" : 0, "mode" : 4}], "name" : ""}, {"primitives" : [{"attributes" : {"POSITION" : 5, "NORMAL" : 6, "TEXCOORD_0" : 7}, "indices" : 4, "material" : 1, "mode" : 4}], "name" : ""}], "nodes" : [{"matrix" : [1, 0, 0, 0, 0, 6.123233995736766E-17, -1, 0, 0, 1, 6.123233995736766E-17, 0, 0, 0, 0, 1], "mesh" : 0, "name" : "UnstableStarCore"}, {"matrix" : [1.0099999904632568, 0, 0, 0, 0, 6.184466277298424E-17, -1.0099999904632568, 0, 0, 1.0099999904632568, 6.184466277298424E-17, 0, 0, 0, 0, 1], "mesh" : 1, "name" : "UnstableStarref"}], "scene" : 0, "scenes" : [{"nodes" : [0, 1]}]}