{"accessors" : [{"bufferView" : 0, "byteOffset" : 0, "componentType" : 5123, "count" : 17664, "type" : "SCALAR", "max" : [3222], "min" : [0]}, {"bufferView" : 1, "byteOffset" : 0, "componentType" : 5126, "count" : 3223, "type" : "VEC3", "max" : [0.9976980090141296, 1, 1.0228170156478882], "min" : [-1.0023000240325928, -1, -0.9771829843521118], "name" : "POSITION"}, {"bufferView" : 1, "byteOffset" : 12, "componentType" : 5126, "count" : 3223, "type" : "VEC2", "max" : [1, 1], "min" : [0, 0], "name" : "TEXCOORD_0"}, {"bufferView" : 1, "byteOffset" : 20, "componentType" : 5126, "count" : 3223, "type" : "VEC3", "max" : [1.0000044107437134, 1.0000042915344238, 1.0000039339065552], "min" : [-1.0000044107437134, -1.0000042915344238, -1.0000039339065552], "name" : "NORMAL"}], "asset" : {"generator" : "Aspose.3D 24.6.0", "version" : "2.0"}, "buffers" : [{"uri" : "data:application/octet-stream;base64,", "byteLength" : 138472}], "bufferViews" : [{"buffer" : 0, "byteOffset" : 0, "byteLength" : 35328, "target" : 34963}, {"buffer" : 0, "byteOffset" : 35332, "byteLength" : 103136, "byteStride" : 32, "target" : 34962}], "meshes" : [{"primitives" : [{"attributes" : {"POSITION" : 1, "TEXCOORD_0" : 2, "NORMAL" : 3}, "indices" : 0, "mode" : 4}], "name" : ""}], "nodes" : [{"mesh" : 0, "name" : "Sphere"}], "scene" : 0, "scenes" : [{"nodes" : [0]}]}